# xmcd CD database file
#
# Track frame offsets:
#	150
#	20832
#	36288
#	51369
#	65319
#	81053
#	95377
#	108995
#	125618
#	137399
#	154292
#	170122
#
# Disc length: 2470 seconds
#
# Revision: 0
# Processed by: cddbd v1.5.2PL0 Copyright (c) Steve Scherf et al.
# Submitted via: ACXtractor (MTCDDB.DLL V2003.07.15)
#
DISCID=a209a40c
DTITLE=Tom Maxwell - Further Out
DYEAR=2009
DGENRE=Country
TTITLE0=Back to Camooweal
TTITLE1=The Longyard to Longreach
TTITLE2=Life on the Road
TTITLE3=Finke River Blues
TTITLE4=Kings without a Crown
TTITLE5=Tracks Left in the Dirt
TTITLE6=Where I Wanna Be
TTITLE7=Moving Memories, Movin' On
TTITLE8=Mount Isa Rodeo
TTITLE9=Only a Bushman Would Know
TTITLE10=That's What Bushmen Would Know
TTITLE11=Further Out
EXTD=ID3G:   2 YEAR: 2009
EXTT0=
EXTT1=
EXTT2=
EXTT3=
EXTT4=
EXTT5=
EXTT6=
EXTT7=
EXTT8=
EXTT9=
EXTT10=
EXTT11=
PLAYORDER=
